# xmcd CD database file
#
# Track frame offsets:
#	150
#	28175
#	51889
#	64072
#	86825
#	101425
#	120617
#	145925
#	160650
#	176857
#
# Disc length: 2875 seconds
#
# Revision: 3
# Processed by: cddbd v1.5.1PL0 Copyright (c) Steve Scherf et al.
# Submitted via: CDex 1.51
#
DISCID=880b390a
DTITLE=B.B. King - Live and Well
DYEAR=1969
DGENRE=Blues
TTITLE0=Don't Answer the Door
TTITLE1=Just a Little Love
TTITLE2=My Mood
TTITLE3=Sweet Little Angel
TTITLE4=Please Accept My Love
TTITLE5=I Want You So Bad
TTITLE6=Friends
TTITLE7=Get Off My Back, Woman
TTITLE8=Let's Get Down to Business
TTITLE9=Why I Sing the Blues
EXTD=YEAR: 1969
EXTT0=
EXTT1=
EXTT2=
EXTT3=
EXTT4=
EXTT5=
EXTT6=
EXTT7=
EXTT8=
EXTT9=
PLAYORDER=
